<mxfile host="Electron" modified="2023-05-01T13:45:29.247Z" agent="Mozilla/5.0 (Windows NT 10.0; Win64; x64) AppleWebKit/537.36 (KHTML, like Gecko) draw.io/21.1.2 Chrome/106.0.5249.199 Electron/21.4.3 Safari/537.36" etag="7c-DVoxaoKiVpy2D8zoy" version="21.1.2" type="device">
  <diagram name="Page-1" id="UpY-j-eSxarQxpCMAa1M">
    <mxGraphModel dx="1509" dy="880" grid="1" gridSize="10" guides="1" tooltips="1" connect="1" arrows="1" fold="1" page="1" pageScale="1" pageWidth="1169" pageHeight="827" math="0" shadow="0">
      <root>
        <mxCell id="0" />
        <mxCell id="1" parent="0" />
        <mxCell id="qxie9QxksMyN0qrBRrBz-24" value="" style="edgeStyle=orthogonalEdgeStyle;rounded=0;orthogonalLoop=1;jettySize=auto;html=1;strokeWidth=2;endArrow=none;endFill=0;fontSize=14;fontFamily=Times New Roman;" edge="1" parent="1" source="qxie9QxksMyN0qrBRrBz-1" target="qxie9QxksMyN0qrBRrBz-3">
          <mxGeometry relative="1" as="geometry" />
        </mxCell>
        <mxCell id="qxie9QxksMyN0qrBRrBz-1" value="начало" style="rounded=1;whiteSpace=wrap;html=1;arcSize=50;aspect=fixed;strokeWidth=2;fontSize=14;fontFamily=Times New Roman;" vertex="1" parent="1">
          <mxGeometry x="81" y="32" width="150" height="75" as="geometry" />
        </mxCell>
        <mxCell id="qxie9QxksMyN0qrBRrBz-25" style="edgeStyle=orthogonalEdgeStyle;rounded=0;orthogonalLoop=1;jettySize=auto;html=1;strokeWidth=2;endArrow=none;endFill=0;fontSize=14;fontFamily=Times New Roman;" edge="1" parent="1" source="qxie9QxksMyN0qrBRrBz-3" target="qxie9QxksMyN0qrBRrBz-4">
          <mxGeometry relative="1" as="geometry" />
        </mxCell>
        <mxCell id="qxie9QxksMyN0qrBRrBz-3" value="авторизация" style="rounded=0;whiteSpace=wrap;html=1;aspect=fixed;strokeWidth=2;fontSize=14;fontFamily=Times New Roman;" vertex="1" parent="1">
          <mxGeometry x="81" y="132" width="150" height="75" as="geometry" />
        </mxCell>
        <mxCell id="qxie9QxksMyN0qrBRrBz-26" style="edgeStyle=orthogonalEdgeStyle;rounded=0;orthogonalLoop=1;jettySize=auto;html=1;exitX=0.5;exitY=1;exitDx=0;exitDy=0;endArrow=none;endFill=0;strokeWidth=2;fontSize=14;fontFamily=Times New Roman;" edge="1" parent="1" source="qxie9QxksMyN0qrBRrBz-4" target="qxie9QxksMyN0qrBRrBz-7">
          <mxGeometry relative="1" as="geometry" />
        </mxCell>
        <mxCell id="qxie9QxksMyN0qrBRrBz-4" value="выбор&lt;br style=&quot;font-size: 14px;&quot;&gt;страницы" style="rhombus;whiteSpace=wrap;html=1;strokeWidth=2;fontFamily=Times New Roman;fontSize=14;aspect=fixed;" vertex="1" parent="1">
          <mxGeometry x="81" y="232" width="150" height="100.01" as="geometry" />
        </mxCell>
        <mxCell id="qxie9QxksMyN0qrBRrBz-28" style="edgeStyle=orthogonalEdgeStyle;rounded=0;orthogonalLoop=1;jettySize=auto;html=1;endArrow=none;endFill=0;strokeWidth=2;fontSize=14;fontFamily=Times New Roman;" edge="1" parent="1" source="qxie9QxksMyN0qrBRrBz-5">
          <mxGeometry relative="1" as="geometry">
            <mxPoint x="155" y="379.5" as="targetPoint" />
          </mxGeometry>
        </mxCell>
        <mxCell id="qxie9QxksMyN0qrBRrBz-31" style="edgeStyle=orthogonalEdgeStyle;rounded=0;orthogonalLoop=1;jettySize=auto;html=1;exitX=1;exitY=0.5;exitDx=0;exitDy=0;strokeWidth=2;fontSize=14;fontFamily=Times New Roman;" edge="1" parent="1" source="qxie9QxksMyN0qrBRrBz-5">
          <mxGeometry relative="1" as="geometry">
            <mxPoint x="155" y="682" as="targetPoint" />
            <Array as="points">
              <mxPoint x="455" y="380" />
              <mxPoint x="455" y="682" />
              <mxPoint x="155" y="682" />
            </Array>
          </mxGeometry>
        </mxCell>
        <mxCell id="qxie9QxksMyN0qrBRrBz-5" value="генерация &lt;br style=&quot;font-size: 14px;&quot;&gt;схемы" style="rounded=0;whiteSpace=wrap;html=1;aspect=fixed;strokeWidth=2;shape=process;fontSize=14;fontFamily=Times New Roman;" vertex="1" parent="1">
          <mxGeometry x="231" y="342" width="150" height="75" as="geometry" />
        </mxCell>
        <mxCell id="qxie9QxksMyN0qrBRrBz-29" style="edgeStyle=orthogonalEdgeStyle;rounded=0;orthogonalLoop=1;jettySize=auto;html=1;endArrow=none;endFill=0;strokeWidth=2;fontSize=14;fontFamily=Times New Roman;" edge="1" parent="1" source="qxie9QxksMyN0qrBRrBz-6">
          <mxGeometry relative="1" as="geometry">
            <mxPoint x="155" y="489.5" as="targetPoint" />
          </mxGeometry>
        </mxCell>
        <mxCell id="qxie9QxksMyN0qrBRrBz-33" style="edgeStyle=orthogonalEdgeStyle;rounded=0;orthogonalLoop=1;jettySize=auto;html=1;exitX=1;exitY=0.5;exitDx=0;exitDy=0;strokeWidth=2;endArrow=none;endFill=0;fontSize=14;fontFamily=Times New Roman;" edge="1" parent="1" source="qxie9QxksMyN0qrBRrBz-6">
          <mxGeometry relative="1" as="geometry">
            <mxPoint x="455" y="489.78260869565224" as="targetPoint" />
          </mxGeometry>
        </mxCell>
        <mxCell id="qxie9QxksMyN0qrBRrBz-6" value="просмотр&lt;br style=&quot;font-size: 14px;&quot;&gt;истории" style="rounded=0;whiteSpace=wrap;html=1;aspect=fixed;strokeWidth=2;shape=process;fontSize=14;fontFamily=Times New Roman;" vertex="1" parent="1">
          <mxGeometry x="231" y="452" width="150" height="75" as="geometry" />
        </mxCell>
        <mxCell id="qxie9QxksMyN0qrBRrBz-7" value="конец" style="rounded=1;whiteSpace=wrap;html=1;arcSize=50;aspect=fixed;strokeWidth=2;fontSize=14;fontFamily=Times New Roman;" vertex="1" parent="1">
          <mxGeometry x="81" y="712" width="150" height="75" as="geometry" />
        </mxCell>
        <mxCell id="qxie9QxksMyN0qrBRrBz-30" style="edgeStyle=orthogonalEdgeStyle;rounded=0;orthogonalLoop=1;jettySize=auto;html=1;endArrow=none;endFill=0;strokeWidth=2;fontSize=14;fontFamily=Times New Roman;" edge="1" parent="1" source="qxie9QxksMyN0qrBRrBz-8">
          <mxGeometry relative="1" as="geometry">
            <mxPoint x="155" y="603.5" as="targetPoint" />
          </mxGeometry>
        </mxCell>
        <mxCell id="qxie9QxksMyN0qrBRrBz-32" style="edgeStyle=orthogonalEdgeStyle;rounded=0;orthogonalLoop=1;jettySize=auto;html=1;exitX=1;exitY=0.5;exitDx=0;exitDy=0;endArrow=none;endFill=0;strokeWidth=2;fontSize=14;fontFamily=Times New Roman;" edge="1" parent="1" source="qxie9QxksMyN0qrBRrBz-8">
          <mxGeometry relative="1" as="geometry">
            <mxPoint x="455" y="603.6956521739132" as="targetPoint" />
          </mxGeometry>
        </mxCell>
        <mxCell id="qxie9QxksMyN0qrBRrBz-8" value="выход" style="rounded=0;whiteSpace=wrap;html=1;aspect=fixed;strokeWidth=2;shape=label;fontSize=14;fontFamily=Times New Roman;" vertex="1" parent="1">
          <mxGeometry x="231" y="566" width="150" height="75" as="geometry" />
        </mxCell>
        <mxCell id="qxie9QxksMyN0qrBRrBz-37" style="edgeStyle=orthogonalEdgeStyle;rounded=0;orthogonalLoop=1;jettySize=auto;html=1;endArrow=none;endFill=0;strokeWidth=2;fontSize=14;fontFamily=Times New Roman;" edge="1" parent="1" source="qxie9QxksMyN0qrBRrBz-11" target="qxie9QxksMyN0qrBRrBz-13">
          <mxGeometry relative="1" as="geometry" />
        </mxCell>
        <mxCell id="qxie9QxksMyN0qrBRrBz-11" value="начало&lt;br style=&quot;font-size: 14px;&quot;&gt;генерация &lt;br style=&quot;font-size: 14px;&quot;&gt;схемы" style="rounded=1;whiteSpace=wrap;html=1;arcSize=50;aspect=fixed;strokeWidth=2;fontSize=14;fontFamily=Times New Roman;" vertex="1" parent="1">
          <mxGeometry x="509" y="32" width="150" height="75" as="geometry" />
        </mxCell>
        <mxCell id="qxie9QxksMyN0qrBRrBz-38" style="edgeStyle=orthogonalEdgeStyle;rounded=0;orthogonalLoop=1;jettySize=auto;html=1;strokeWidth=2;endArrow=none;endFill=0;fontSize=14;fontFamily=Times New Roman;" edge="1" parent="1" source="qxie9QxksMyN0qrBRrBz-13" target="qxie9QxksMyN0qrBRrBz-14">
          <mxGeometry relative="1" as="geometry" />
        </mxCell>
        <mxCell id="qxie9QxksMyN0qrBRrBz-13" value="ввод кода" style="rounded=0;whiteSpace=wrap;html=1;aspect=fixed;strokeWidth=2;fontSize=14;fontFamily=Times New Roman;" vertex="1" parent="1">
          <mxGeometry x="509" y="132" width="150" height="75" as="geometry" />
        </mxCell>
        <mxCell id="qxie9QxksMyN0qrBRrBz-39" style="edgeStyle=orthogonalEdgeStyle;rounded=0;orthogonalLoop=1;jettySize=auto;html=1;strokeWidth=2;endArrow=none;endFill=0;fontSize=14;fontFamily=Times New Roman;" edge="1" parent="1" source="qxie9QxksMyN0qrBRrBz-14" target="qxie9QxksMyN0qrBRrBz-15">
          <mxGeometry relative="1" as="geometry" />
        </mxCell>
        <mxCell id="qxie9QxksMyN0qrBRrBz-14" value="отправка&lt;br style=&quot;font-size: 14px;&quot;&gt;запроса&lt;br style=&quot;font-size: 14px;&quot;&gt;на генерацию" style="rounded=0;whiteSpace=wrap;html=1;aspect=fixed;strokeWidth=2;fontSize=14;fontFamily=Times New Roman;" vertex="1" parent="1">
          <mxGeometry x="509" y="232" width="150" height="75" as="geometry" />
        </mxCell>
        <mxCell id="qxie9QxksMyN0qrBRrBz-40" style="edgeStyle=orthogonalEdgeStyle;rounded=0;orthogonalLoop=1;jettySize=auto;html=1;exitX=0.5;exitY=1;exitDx=0;exitDy=0;strokeWidth=2;endArrow=none;endFill=0;fontSize=14;fontFamily=Times New Roman;" edge="1" parent="1" source="qxie9QxksMyN0qrBRrBz-15" target="qxie9QxksMyN0qrBRrBz-18">
          <mxGeometry relative="1" as="geometry" />
        </mxCell>
        <mxCell id="qxie9QxksMyN0qrBRrBz-15" value="выбор элемента&lt;br style=&quot;font-size: 14px;&quot;&gt;меню" style="rhombus;whiteSpace=wrap;html=1;strokeWidth=2;fontFamily=Times New Roman;fontSize=14;aspect=fixed;" vertex="1" parent="1">
          <mxGeometry x="509" y="342" width="150" height="100.01" as="geometry" />
        </mxCell>
        <mxCell id="qxie9QxksMyN0qrBRrBz-42" style="edgeStyle=orthogonalEdgeStyle;rounded=0;orthogonalLoop=1;jettySize=auto;html=1;endArrow=none;endFill=0;strokeWidth=2;fontSize=14;fontFamily=Times New Roman;" edge="1" parent="1" source="qxie9QxksMyN0qrBRrBz-16">
          <mxGeometry relative="1" as="geometry">
            <mxPoint x="585" y="479.51" as="targetPoint" />
          </mxGeometry>
        </mxCell>
        <mxCell id="qxie9QxksMyN0qrBRrBz-44" style="edgeStyle=orthogonalEdgeStyle;rounded=0;orthogonalLoop=1;jettySize=auto;html=1;exitX=1;exitY=0.5;exitDx=0;exitDy=0;strokeWidth=2;fontSize=14;fontFamily=Times New Roman;" edge="1" parent="1" source="qxie9QxksMyN0qrBRrBz-16">
          <mxGeometry relative="1" as="geometry">
            <mxPoint x="585" y="682" as="targetPoint" />
            <Array as="points">
              <mxPoint x="865" y="479" />
              <mxPoint x="865" y="682" />
            </Array>
          </mxGeometry>
        </mxCell>
        <mxCell id="qxie9QxksMyN0qrBRrBz-16" value="редактирование&lt;br style=&quot;font-size: 14px;&quot;&gt;схемы" style="rounded=0;whiteSpace=wrap;html=1;aspect=fixed;strokeWidth=2;fontSize=14;fontFamily=Times New Roman;" vertex="1" parent="1">
          <mxGeometry x="665" y="442.01" width="150" height="75" as="geometry" />
        </mxCell>
        <mxCell id="qxie9QxksMyN0qrBRrBz-43" style="edgeStyle=orthogonalEdgeStyle;rounded=0;orthogonalLoop=1;jettySize=auto;html=1;exitX=0;exitY=0.5;exitDx=0;exitDy=0;endArrow=none;endFill=0;strokeWidth=2;fontSize=14;fontFamily=Times New Roman;" edge="1" parent="1" source="qxie9QxksMyN0qrBRrBz-17">
          <mxGeometry relative="1" as="geometry">
            <mxPoint x="585" y="589.3684210526317" as="targetPoint" />
          </mxGeometry>
        </mxCell>
        <mxCell id="qxie9QxksMyN0qrBRrBz-45" style="edgeStyle=orthogonalEdgeStyle;rounded=0;orthogonalLoop=1;jettySize=auto;html=1;exitX=1;exitY=0.5;exitDx=0;exitDy=0;strokeWidth=2;endArrow=none;endFill=0;fontSize=14;fontFamily=Times New Roman;" edge="1" parent="1" source="qxie9QxksMyN0qrBRrBz-17">
          <mxGeometry relative="1" as="geometry">
            <mxPoint x="865" y="589.3684210526317" as="targetPoint" />
          </mxGeometry>
        </mxCell>
        <mxCell id="qxie9QxksMyN0qrBRrBz-17" value="сохранение&lt;br style=&quot;font-size: 14px;&quot;&gt;схемы" style="rounded=0;whiteSpace=wrap;html=1;aspect=fixed;strokeWidth=2;fontSize=14;fontFamily=Times New Roman;" vertex="1" parent="1">
          <mxGeometry x="665" y="552" width="150" height="75" as="geometry" />
        </mxCell>
        <mxCell id="qxie9QxksMyN0qrBRrBz-18" value="конец" style="rounded=1;whiteSpace=wrap;html=1;arcSize=50;aspect=fixed;strokeWidth=2;fontSize=14;fontFamily=Times New Roman;" vertex="1" parent="1">
          <mxGeometry x="509" y="712" width="150" height="75" as="geometry" />
        </mxCell>
        <mxCell id="qxie9QxksMyN0qrBRrBz-48" style="edgeStyle=orthogonalEdgeStyle;rounded=0;orthogonalLoop=1;jettySize=auto;html=1;strokeWidth=2;endArrow=none;endFill=0;fontSize=14;fontFamily=Times New Roman;" edge="1" parent="1" source="qxie9QxksMyN0qrBRrBz-19" target="qxie9QxksMyN0qrBRrBz-20">
          <mxGeometry relative="1" as="geometry" />
        </mxCell>
        <mxCell id="qxie9QxksMyN0qrBRrBz-19" value="начало&lt;br style=&quot;font-size: 14px;&quot;&gt;просмотр&lt;br style=&quot;font-size: 14px;&quot;&gt;истории" style="rounded=1;whiteSpace=wrap;html=1;arcSize=50;aspect=fixed;strokeWidth=2;fontSize=14;fontFamily=Times New Roman;" vertex="1" parent="1">
          <mxGeometry x="945" y="32" width="150" height="75" as="geometry" />
        </mxCell>
        <mxCell id="qxie9QxksMyN0qrBRrBz-49" style="edgeStyle=orthogonalEdgeStyle;rounded=0;orthogonalLoop=1;jettySize=auto;html=1;strokeWidth=2;endArrow=none;endFill=0;fontSize=14;fontFamily=Times New Roman;" edge="1" parent="1" source="qxie9QxksMyN0qrBRrBz-20" target="qxie9QxksMyN0qrBRrBz-21">
          <mxGeometry relative="1" as="geometry" />
        </mxCell>
        <mxCell id="qxie9QxksMyN0qrBRrBz-20" value="выбор запроса" style="rounded=0;whiteSpace=wrap;html=1;aspect=fixed;strokeWidth=2;fontSize=14;fontFamily=Times New Roman;" vertex="1" parent="1">
          <mxGeometry x="945" y="142" width="150" height="75" as="geometry" />
        </mxCell>
        <mxCell id="qxie9QxksMyN0qrBRrBz-50" style="edgeStyle=orthogonalEdgeStyle;rounded=0;orthogonalLoop=1;jettySize=auto;html=1;strokeWidth=2;endArrow=none;endFill=0;fontSize=14;fontFamily=Times New Roman;" edge="1" parent="1" source="qxie9QxksMyN0qrBRrBz-21" target="qxie9QxksMyN0qrBRrBz-22">
          <mxGeometry relative="1" as="geometry" />
        </mxCell>
        <mxCell id="qxie9QxksMyN0qrBRrBz-21" value="переход к&amp;nbsp;&lt;br style=&quot;font-size: 14px;&quot;&gt;редактированию" style="rounded=0;whiteSpace=wrap;html=1;aspect=fixed;strokeWidth=2;fontSize=14;fontFamily=Times New Roman;" vertex="1" parent="1">
          <mxGeometry x="945" y="252" width="150" height="75" as="geometry" />
        </mxCell>
        <mxCell id="qxie9QxksMyN0qrBRrBz-22" value="конец" style="rounded=1;whiteSpace=wrap;html=1;arcSize=50;aspect=fixed;strokeWidth=2;fontSize=14;fontFamily=Times New Roman;" vertex="1" parent="1">
          <mxGeometry x="945" y="360.5" width="150" height="75" as="geometry" />
        </mxCell>
        <mxCell id="qxie9QxksMyN0qrBRrBz-34" value="редактор" style="text;html=1;align=center;verticalAlign=middle;resizable=0;points=[];autosize=1;strokeColor=none;fillColor=none;fontSize=14;fontFamily=Times New Roman;" vertex="1" parent="1">
          <mxGeometry x="154" y="354" width="80" height="30" as="geometry" />
        </mxCell>
        <mxCell id="qxie9QxksMyN0qrBRrBz-35" value="история" style="text;html=1;align=center;verticalAlign=middle;resizable=0;points=[];autosize=1;strokeColor=none;fillColor=none;fontSize=14;fontFamily=Times New Roman;" vertex="1" parent="1">
          <mxGeometry x="157" y="461" width="70" height="30" as="geometry" />
        </mxCell>
        <mxCell id="qxie9QxksMyN0qrBRrBz-36" value="выход" style="text;html=1;align=center;verticalAlign=middle;resizable=0;points=[];autosize=1;strokeColor=none;fillColor=none;fontSize=14;fontFamily=Times New Roman;" vertex="1" parent="1">
          <mxGeometry x="161" y="576.5" width="60" height="30" as="geometry" />
        </mxCell>
        <mxCell id="qxie9QxksMyN0qrBRrBz-46" value="сохранение" style="text;html=1;align=center;verticalAlign=middle;resizable=0;points=[];autosize=1;strokeColor=none;fillColor=none;fontSize=14;fontFamily=Times New Roman;" vertex="1" parent="1">
          <mxGeometry x="578" y="566" width="90" height="30" as="geometry" />
        </mxCell>
        <mxCell id="qxie9QxksMyN0qrBRrBz-47" value="блок-схема" style="text;html=1;align=center;verticalAlign=middle;resizable=0;points=[];autosize=1;strokeColor=none;fillColor=none;fontSize=14;fontFamily=Times New Roman;" vertex="1" parent="1">
          <mxGeometry x="579" y="453" width="90" height="30" as="geometry" />
        </mxCell>
        <mxCell id="qxie9QxksMyN0qrBRrBz-51" value="1" style="text;html=1;align=center;verticalAlign=middle;resizable=0;points=[];autosize=1;strokeColor=none;fillColor=none;fontSize=14;fontFamily=Times New Roman;" vertex="1" parent="1">
          <mxGeometry x="51" y="32" width="30" height="30" as="geometry" />
        </mxCell>
        <mxCell id="qxie9QxksMyN0qrBRrBz-52" value="2" style="text;html=1;align=center;verticalAlign=middle;resizable=0;points=[];autosize=1;strokeColor=none;fillColor=none;fontSize=14;fontFamily=Times New Roman;" vertex="1" parent="1">
          <mxGeometry x="51" y="132" width="30" height="30" as="geometry" />
        </mxCell>
        <mxCell id="qxie9QxksMyN0qrBRrBz-53" value="3" style="text;html=1;align=center;verticalAlign=middle;resizable=0;points=[];autosize=1;strokeColor=none;fillColor=none;fontSize=14;fontFamily=Times New Roman;" vertex="1" parent="1">
          <mxGeometry x="51" y="242" width="30" height="30" as="geometry" />
        </mxCell>
        <mxCell id="qxie9QxksMyN0qrBRrBz-54" value="4" style="text;html=1;align=center;verticalAlign=middle;resizable=0;points=[];autosize=1;strokeColor=none;fillColor=none;fontSize=14;fontFamily=Times New Roman;" vertex="1" parent="1">
          <mxGeometry x="65" y="700" width="30" height="30" as="geometry" />
        </mxCell>
        <mxCell id="qxie9QxksMyN0qrBRrBz-55" value="5" style="text;html=1;align=center;verticalAlign=middle;resizable=0;points=[];autosize=1;strokeColor=none;fillColor=none;fontSize=14;fontFamily=Times New Roman;" vertex="1" parent="1">
          <mxGeometry x="201" y="324" width="30" height="30" as="geometry" />
        </mxCell>
        <mxCell id="qxie9QxksMyN0qrBRrBz-56" value="6" style="text;html=1;align=center;verticalAlign=middle;resizable=0;points=[];autosize=1;strokeColor=none;fillColor=none;fontSize=14;fontFamily=Times New Roman;" vertex="1" parent="1">
          <mxGeometry x="199" y="436" width="30" height="30" as="geometry" />
        </mxCell>
        <mxCell id="qxie9QxksMyN0qrBRrBz-57" value="7" style="text;html=1;align=center;verticalAlign=middle;resizable=0;points=[];autosize=1;strokeColor=none;fillColor=none;fontSize=14;fontFamily=Times New Roman;" vertex="1" parent="1">
          <mxGeometry x="201" y="546.5" width="30" height="30" as="geometry" />
        </mxCell>
        <mxCell id="qxie9QxksMyN0qrBRrBz-58" value="8" style="text;html=1;align=center;verticalAlign=middle;resizable=0;points=[];autosize=1;strokeColor=none;fillColor=none;fontSize=14;fontFamily=Times New Roman;" vertex="1" parent="1">
          <mxGeometry x="475" y="32" width="30" height="30" as="geometry" />
        </mxCell>
        <mxCell id="qxie9QxksMyN0qrBRrBz-59" value="9" style="text;html=1;align=center;verticalAlign=middle;resizable=0;points=[];autosize=1;strokeColor=none;fillColor=none;fontSize=14;fontFamily=Times New Roman;" vertex="1" parent="1">
          <mxGeometry x="475" y="122" width="30" height="30" as="geometry" />
        </mxCell>
        <mxCell id="qxie9QxksMyN0qrBRrBz-60" value="10" style="text;html=1;align=center;verticalAlign=middle;resizable=0;points=[];autosize=1;strokeColor=none;fillColor=none;fontSize=14;fontFamily=Times New Roman;" vertex="1" parent="1">
          <mxGeometry x="470" y="222" width="40" height="30" as="geometry" />
        </mxCell>
        <mxCell id="qxie9QxksMyN0qrBRrBz-61" value="11" style="text;html=1;align=center;verticalAlign=middle;resizable=0;points=[];autosize=1;strokeColor=none;fillColor=none;fontSize=14;fontFamily=Times New Roman;" vertex="1" parent="1">
          <mxGeometry x="475" y="342" width="40" height="30" as="geometry" />
        </mxCell>
        <mxCell id="qxie9QxksMyN0qrBRrBz-62" value="12" style="text;html=1;align=center;verticalAlign=middle;resizable=0;points=[];autosize=1;strokeColor=none;fillColor=none;fontSize=14;fontFamily=Times New Roman;" vertex="1" parent="1">
          <mxGeometry x="485" y="700" width="40" height="30" as="geometry" />
        </mxCell>
        <mxCell id="qxie9QxksMyN0qrBRrBz-63" value="13" style="text;html=1;align=center;verticalAlign=middle;resizable=0;points=[];autosize=1;strokeColor=none;fillColor=none;fontSize=14;fontFamily=Times New Roman;" vertex="1" parent="1">
          <mxGeometry x="629" y="431" width="40" height="30" as="geometry" />
        </mxCell>
        <mxCell id="qxie9QxksMyN0qrBRrBz-64" value="14" style="text;html=1;align=center;verticalAlign=middle;resizable=0;points=[];autosize=1;strokeColor=none;fillColor=none;fontSize=14;fontFamily=Times New Roman;" vertex="1" parent="1">
          <mxGeometry x="629" y="546.5" width="40" height="30" as="geometry" />
        </mxCell>
        <mxCell id="qxie9QxksMyN0qrBRrBz-65" value="15" style="text;html=1;align=center;verticalAlign=middle;resizable=0;points=[];autosize=1;strokeColor=none;fillColor=none;fontSize=14;fontFamily=Times New Roman;" vertex="1" parent="1">
          <mxGeometry x="905" y="32" width="40" height="30" as="geometry" />
        </mxCell>
        <mxCell id="qxie9QxksMyN0qrBRrBz-66" value="16" style="text;html=1;align=center;verticalAlign=middle;resizable=0;points=[];autosize=1;strokeColor=none;fillColor=none;fontSize=14;fontFamily=Times New Roman;" vertex="1" parent="1">
          <mxGeometry x="905" y="132" width="40" height="30" as="geometry" />
        </mxCell>
        <mxCell id="qxie9QxksMyN0qrBRrBz-67" value="17" style="text;html=1;align=center;verticalAlign=middle;resizable=0;points=[];autosize=1;strokeColor=none;fillColor=none;fontSize=14;fontFamily=Times New Roman;" vertex="1" parent="1">
          <mxGeometry x="905" y="242" width="40" height="30" as="geometry" />
        </mxCell>
        <mxCell id="qxie9QxksMyN0qrBRrBz-68" value="18" style="text;html=1;align=center;verticalAlign=middle;resizable=0;points=[];autosize=1;strokeColor=none;fillColor=none;fontSize=14;fontFamily=Times New Roman;" vertex="1" parent="1">
          <mxGeometry x="905" y="360.5" width="40" height="30" as="geometry" />
        </mxCell>
      </root>
    </mxGraphModel>
  </diagram>
</mxfile>
